<svg preserveAspectRatio="none" width="100%" height="100%" overflow="visible" style="display: block;" viewBox="0 0 103.999 74.7494" fill="none" xmlns="http://www.w3.org/2000/svg">
<g id="Logo">
<path id="Vector 14 (Stroke)" d="M45.7899 5.85705C48.9216 0.31725 55.9554 -1.63736 61.5005 1.49131C67.0455 4.62001 69.002 11.6472 65.8704 17.187L36.6411 68.8925C33.5094 74.4323 26.4756 76.3869 20.9305 73.2582C15.3854 70.1295 13.429 63.1024 16.5606 57.5625L45.7899 5.85705Z" fill="var(--fill-0, #9643E8)"/>
<path id="Vector 16 (Stroke)" d="M2.9847 5.08454C7.19455 -0.52859 15.1578 -1.6663 20.7709 2.54349C26.3841 6.75334 27.5218 14.7166 23.312 20.3297L22.8688 20.9206C18.659 26.5338 10.6957 27.6715 5.08258 23.4617C-0.530553 19.2518 -1.66827 11.2886 2.54152 5.67545L2.9847 5.08454Z" fill="var(--fill-0, #9643E8)"/>
<path id="Vector 18" d="M25.1141 8.57026C25.8527 11.377 26.1482 14.627 30.2845 15.3656C33.3867 15.8088 36.8337 15.4149 38.2617 14.9225C41.7295 13.8078 44.4012 11.4126 45.6676 9.5648L46.2389 8.57026C46.1036 8.87269 45.9117 9.20857 45.6676 9.5648L35.2374 27.721C34.9763 28.3514 34.6276 28.9304 34.2731 29.3996L35.2374 27.721C36.2096 25.3739 35.9672 22.3154 30.2845 21.5701C23.0754 20.6247 21.7164 22.6042 19.6483 23.9337L25.1141 8.57026Z" fill="var(--fill-0, #9643E8)"/>
<path id="Subtract" d="M82.4266 5.85679C85.5583 0.317175 92.5915 -1.63697 98.1365 1.49155C103.682 4.62025 105.638 11.6471 102.507 17.1869L73.2772 68.8919C70.1455 74.4317 63.1122 76.3867 57.5672 73.2582C52.0222 70.1295 50.0657 63.1026 53.1971 57.5628L82.4266 5.85679ZM67.8885 56.4554C64.5529 53.968 59.8199 54.6407 57.3182 57.9574L57.0555 58.306C54.5538 61.6227 55.2297 66.3283 58.5652 68.8158C61.9008 71.3032 66.6328 70.6312 69.1346 67.3148L69.3982 66.9652C71.8998 63.6485 71.224 58.9429 67.8885 56.4554Z" fill="var(--fill-0, #9643E8)"/>
</g>
</svg>
